<svg width="2381" height="1256" viewBox="0 0 2381 1256" fill="none" xmlns="http://www.w3.org/2000/svg">
<path d="M1.40223 1157.95C-2.54328 1134.68 10.8778 792.905 135.218 509.924C246.832 256.266 506.383 111.697 810.161 294.01C1135.65 489.404 1416.4 509.053 1642.78 452.055C1866.2 395.545 2014.77 225.274 2081.5 116.699C2226.32 -117.933 2440.25 27.1989 2365.1 335.907C2329.65 479.51 2236.18 519.659 2074.21 534.56C1904.91 550.135 1654.78 517.074 1307.84 584.45C973.245 649.682 596.719 806.345 384.994 1005.76C159.667 1218.16 34.4356 1361 1.40223 1157.95Z" fill="url(#paint0_linear_892_1377)" fill-opacity="0.1"/>
<defs>
<linearGradient id="paint0_linear_892_1377" x1="2257" y1="973.32" x2="52.6682" y2="290.04" gradientUnits="userSpaceOnUse">
<stop stop-color="#5D50C6"/>
<stop offset="1" stop-color="#F85E9F"/>
</linearGradient>
</defs>
</svg>
