<svg width="192" height="271" viewBox="0 0 192 271" fill="none" xmlns="http://www.w3.org/2000/svg">
<g filter="url(#filter0_ddddd_832_1014)">
<rect width="100" height="100" rx="50" transform="matrix(-1 0 0 1 146 9)" fill="#5D50C6"/>
<path d="M101.586 58H87.9999C87.4476 58 86.9999 58.4477 86.9999 59C86.9999 59.5523 87.4476 60 87.9999 60H101.586L98.3431 63.2426C97.9525 63.6331 97.9525 64.2663 98.3431 64.6568C98.7336 65.0474 99.3667 65.0474 99.7573 64.6568L104 60.4142C104.781 59.6331 104.781 58.3668 104 57.5858L99.7573 53.3431C99.3667 52.9526 98.7336 52.9526 98.3431 53.3431C97.9525 53.7336 97.9525 54.3668 98.3431 54.7573L101.586 58Z" fill="white"/>
</g>
<defs>
<filter id="filter0_ddddd_832_1014" x="0" y="0" width="192" height="271" filterUnits="userSpaceOnUse" color-interpolation-filters="sRGB">
<feFlood flood-opacity="0" result="BackgroundImageFix"/>
<feColorMatrix in="SourceAlpha" type="matrix" values="0 0 0 0 0 0 0 0 0 0 0 0 0 0 0 0 0 0 127 0" result="hardAlpha"/>
<feOffset/>
<feColorMatrix type="matrix" values="0 0 0 0 0 0 0 0 0 0 0 0 0 0 0 0 0 0 0.08 0"/>
<feBlend mode="normal" in2="BackgroundImageFix" result="effect1_dropShadow_832_1014"/>
<feColorMatrix in="SourceAlpha" type="matrix" values="0 0 0 0 0 0 0 0 0 0 0 0 0 0 0 0 0 0 127 0" result="hardAlpha"/>
<feOffset dy="7"/>
<feGaussianBlur stdDeviation="8"/>
<feColorMatrix type="matrix" values="0 0 0 0 0 0 0 0 0 0 0 0 0 0 0 0 0 0 0.07 0"/>
<feBlend mode="normal" in2="effect1_dropShadow_832_1014" result="effect2_dropShadow_832_1014"/>
<feColorMatrix in="SourceAlpha" type="matrix" values="0 0 0 0 0 0 0 0 0 0 0 0 0 0 0 0 0 0 127 0" result="hardAlpha"/>
<feOffset dy="29"/>
<feGaussianBlur stdDeviation="14.5"/>
<feColorMatrix type="matrix" values="0 0 0 0 0 0 0 0 0 0 0 0 0 0 0 0 0 0 0.06 0"/>
<feBlend mode="normal" in2="effect2_dropShadow_832_1014" result="effect3_dropShadow_832_1014"/>
<feColorMatrix in="SourceAlpha" type="matrix" values="0 0 0 0 0 0 0 0 0 0 0 0 0 0 0 0 0 0 127 0" result="hardAlpha"/>
<feOffset dy="65"/>
<feGaussianBlur stdDeviation="19.5"/>
<feColorMatrix type="matrix" values="0 0 0 0 0 0 0 0 0 0 0 0 0 0 0 0 0 0 0.04 0"/>
<feBlend mode="normal" in2="effect3_dropShadow_832_1014" result="effect4_dropShadow_832_1014"/>
<feColorMatrix in="SourceAlpha" type="matrix" values="0 0 0 0 0 0 0 0 0 0 0 0 0 0 0 0 0 0 127 0" result="hardAlpha"/>
<feOffset dy="116"/>
<feGaussianBlur stdDeviation="23"/>
<feColorMatrix type="matrix" values="0 0 0 0 0 0 0 0 0 0 0 0 0 0 0 0 0 0 0.01 0"/>
<feBlend mode="normal" in2="effect4_dropShadow_832_1014" result="effect5_dropShadow_832_1014"/>
<feBlend mode="normal" in="SourceGraphic" in2="effect5_dropShadow_832_1014" result="shape"/>
</filter>
</defs>
</svg>
